<?xml version="1.0" encoding="utf-8"?>
<!-- Generator: Adobe Illustrator 24.3.0, SVG Export Plug-In . SVG Version: 6.00 Build 0)  -->
<svg version="1.1" id="Layer_1" xmlns="http://www.w3.org/2000/svg" xmlns:xlink="http://www.w3.org/1999/xlink" x="0px" y="0px"
	 viewBox="0 0 300 115" style="enable-background:new 0 0 300 115;" xml:space="preserve">
<style type="text/css">
	.st0{fill-rule:evenodd;clip-rule:evenodd;fill:#FFFFFF;}
	.st1{opacity:0.482;}
	.st2{fill:#CFD1D3;}
	.st3{fill:#FFFFFF;}
</style>
<g id="IE_x5F_home_x5F_xl_x5F_long_x5F_form_1_">
	<g id="Group-4_1_">
		<g id="ic_x5F_IE_x5F_tag_x5F_3_1_">
			<g id="path-2">
				<g id="Layer_1_">
					<path id="Layer" class="st0" d="M41.4,13.6c-20,0-36.1,16.2-36.5,36.1c0,0.3,0.3,1,0.3,1l17.1,17.1l0.3,0.3c0.3,0,0.3,0,0.6,0
						s0.3,0,0.6,0s0.3,0,0.3-0.3l41.5-32.6c0,0,0.3-0.3,0.6,0c0.3,0.3,0.3,0,0.3,0.3c0,0.3,0.3,0.3,0.3,0.3c0,0.3,0,0.3,0,0.6
						L29,84.6c-0.3,0.3,0,0.6,0,0.6c1,0.3,1.9,0.6,2.9,1c1,0.3,1.9,0.6,3.2,0.6c1,0.3,2.2,0.3,3.2,0.3c1,0,2.2,0,3.2,0
						c20.3,0,36.5-16.5,36.5-36.8S61.7,13.6,41.4,13.6z"/>
				</g>
			</g>
			<g id="Clip-Path:_Rectangle_1_">
				<g id="Rectangle_2_" class="st1">
					<g id="Rectangle_xA0_Image_1_">
					</g>
					<path id="Layer_17_" class="st2" d="M29,85.1c0,0-0.3,0,0-0.6l38.2-48.2l-12,48.1c0,0-12.2,5.5-25.7,0.9"/>
				</g>
			</g>
			<g id="Layer_16_">
				<path id="Layer_3_" class="st3" d="M95,51.6h-5.4L95,19.9h5.4L95,51.6z"/>
				<path id="Layer_4_" class="st3" d="M109.8,28.1l-0.3,2.5c1.9-1.9,4.1-2.9,7-2.9c1.6,0,2.5,0.3,3.8,1c1.3,0.6,1.6,1.6,1.9,2.5
					c2.2-2.5,4.8-3.8,7.3-3.5c2.2,0,3.8,1,5.1,2.2c1,1.6,1.6,3.5,1.3,6.3l-2.5,15.2h-5.1l2.5-15.2c0-0.6,0-1.3,0-1.9
					c-0.3-1.6-1.3-2.5-3.2-2.5c-2.2,0-3.8,1-5.1,3.5v0.6l-2.9,15.5h-5.1l2.5-15.2c0-0.6,0-1.3,0-1.6c-0.3-1.9-1.3-2.5-3.2-2.9
					c-1.9,0-3.5,1-4.8,2.5l-2.9,17.1h-5.1l4.1-23.5H109.8z"/>
				<path id="Layer_5_" class="st3" d="M147.6,28.1l-0.3,2.5c1.9-1.9,4.1-2.9,7-2.9c1.6,0,2.5,0.3,3.8,1c1.3,0.6,1.6,1.6,1.9,2.5
					c2.2-2.5,4.8-3.8,7.3-3.5c2.2,0,3.8,1,5.1,2.2c1,1.6,1.6,3.5,1.3,6.3l-2.9,15.2h-5.1l2.5-15.2c0-0.6,0-1.3,0-1.9
					c-0.3-1.6-1.3-2.5-3.2-2.5c-2.2,0-3.8,1-5.1,3.5v0.6l-2.9,15.5H152l2.5-15.2c0-0.6,0-1.3,0-1.6c-0.3-1.9-1.3-2.5-3.2-2.9
					c-1.9,0-3.5,1-4.8,2.5l-2.9,17.1h-5.1l4.1-23.5H147.6z"/>
				<path id="Layer_6_" class="st0" d="M186.6,52.2c-1.9,0-3.8-0.6-5.4-1.6c-1.6-1-2.5-2.2-3.2-4.1c-0.6-1.6-1-3.5-1-5.7v-1
					c0.3-2.5,1-4.4,2.2-6.3s2.5-3.5,4.1-4.4c1.6-1,3.5-1.6,5.4-1.3c2.9,0,5.1,1.3,6.7,3.2c1.6,2.2,1.9,5.1,1.6,8.2l-0.3,2.2h-14.6
					c0,1.9,0.3,3.5,1.3,4.4c1,1.3,2.2,1.6,3.5,1.9c2.2,0,4.1-1,6-2.9l2.5,2.9c-1,1.3-2.2,2.5-3.8,3.2
					C190.4,51.6,188.5,52.2,186.6,52.2z M188.8,31.9c-2.9,0-4.8,1.9-6,5.7h9.8c0-0.6,0-1.6,0-2.2c0-1-0.6-1.9-1.3-2.5
					C190.7,32.3,189.7,31.9,188.8,31.9z"/>
				<path id="Layer_7_" class="st0" d="M200.5,39.9c0.3-2.5,1-4.8,1.9-6.7c1-1.9,2.2-3.5,3.8-4.4c1.6-1,3.2-1.3,5.1-1.3
					c2.2,0,4.1,1,5.7,2.5l2.2-12h5.1l-6,33.6h-4.4l0.3-2.5c-1.9,1.9-3.8,2.9-6.3,2.9c-2.2,0-3.8-1-5.1-2.5c-1.3-1.6-1.9-3.8-2.2-6.7
					c0-1,0-1.9,0-2.5V39.9z M205.3,41.8c0,1.9,0.3,3.2,1,4.4c0.6,1,1.6,1.6,2.9,1.6c1.9,0,3.8-1,5.1-2.9l1.6-10.1
					c-0.6-1.9-1.9-2.9-3.8-2.9c-1.9,0-3.5,1-4.8,2.5C206.2,36.4,205.6,38.9,205.3,41.8z"/>
				<path id="Layer_8_" class="st3" d="M229,51.6H224l4.1-23.5h5.1L229,51.6z M228.7,22.1c0-1,0.3-1.6,0.6-1.9c0.6-0.6,1.3-1,2.2-1
					c1,0,1.6,0.3,2.2,0.6c0.6,0.6,1,1.3,1,1.9c0,1-0.3,1.6-1,1.9c-0.6,0.3-1.3,1-1.9,1c-1,0-1.6-0.3-2.2-0.6
					C229,23.4,228.7,22.8,228.7,22.1z"/>
				<path id="Layer_9_" class="st0" d="M248.7,51.6c-0.3-0.6-0.3-1.3-0.3-2.2c-1.9,1.9-4.1,2.5-6.3,2.5c-1.9,0-3.8-0.6-5.1-1.9
					c-1.3-1.3-1.9-2.9-1.9-4.8c0-2.5,1.3-4.4,3.2-5.7c1.9-1.3,4.8-2.2,8.2-2.2h3.2l0.3-1.6c0-0.6,0-1,0-1.6
					c-0.3-1.6-1.3-2.2-3.2-2.5c-1,0-1.9,0.3-2.9,1c-1,0.6-1.3,1.3-1.6,2.2h-5.1c0-1.6,0.6-2.9,1.6-3.8c1-1,2.2-1.9,3.8-2.5
					c1.6-0.6,3.2-1,4.8-1c2.5,0,4.4,1,6,2.2c1.3,1.6,1.9,3.5,1.9,5.7l-1.9,11.1l-0.3,1.9c0,1,0,1.6,0.3,2.5v0.3h-4.8V51.6z
					 M243.3,47.8c1,0,2.2-0.3,2.9-0.6c1-0.6,1.6-1.3,2.2-1.9l1-4.4h-2.5c-1.9,0-3.5,0.3-4.8,1c-1.3,0.6-1.9,1.6-1.9,3.2
					c0,1,0,1.6,0.6,2.2C241.7,47.5,242.3,47.8,243.3,47.8z"/>
				<path id="Layer_10_" class="st3" d="M269.6,22.4l-1,5.7h4.1l-1,3.8h-4.1l-1.9,13.3c0,0.3,0,0.6,0,1c0,1,0.6,1.6,1.6,1.6
					c0.6,0,1.3,0,1.9-0.3l-0.3,4.1c-1,0.3-2.2,0.3-3.2,0.3c-1.9,0-3.2-0.6-4.1-1.9c-1-1.3-1.3-2.9-1-4.8l2.2-13.3h-3.8l0.6-3.8h3.8
					l1-5.7H269.6L269.6,22.4z"/>
				<path id="Layer_11_" class="st0" d="M283.2,52.2c-1.9,0-3.8-0.6-5.4-1.6c-1.6-1-2.5-2.2-3.2-4.1c-0.6-1.6-1-3.5-1-5.7v-1
					c0.3-2.5,1-4.4,2.2-6.3s2.5-3.5,4.1-4.4s3.5-1.6,5.4-1.3c2.9,0,5.1,1.3,6.7,3.2c1.6,2.2,1.9,5.1,1.6,8.2l-0.3,2.2h-14.6
					c0,1.9,0.3,3.5,1.3,4.4c1,1.3,2.2,1.6,3.5,1.9c2.2,0,4.1-1,6-2.9l2.5,2.9c-1,1.3-2.2,2.5-3.8,3.2
					C286.7,51.6,285.1,52.2,283.2,52.2z M285.5,31.9c-2.9,0-4.8,1.9-6,5.7h9.8c0-0.6,0-1.6,0-2.2c-0.3-1-0.6-1.9-1.3-2.5
					C287.4,32.3,286.4,31.9,285.5,31.9z"/>
				<path id="Layer_12_" class="st3" d="M103.8,78.2H91.1L89.6,88h14.6l-0.6,4.4h-20l5.4-31.7h20l-0.6,4.4H93.7l-1.6,8.6h12.7
					L103.8,78.2z"/>
				<path id="Layer_13_" class="st0" d="M108.3,80.4c0.3-2.5,1-4.8,1.9-6.7s2.2-3.5,3.8-4.4s3.2-1.3,5.1-1.3c2.2,0,4.1,1,5.7,2.5
					l2.2-12h5.1l-6,33.6h-4.4l0.3-2.5c-1.9,1.9-3.8,2.9-6.3,2.9c-2.2,0-3.8-1-5.1-2.5c-1.3-1.6-1.9-3.8-2.2-6.7c0-1,0-1.9,0-2.5
					V80.4z M113,82.3c0,1.9,0.3,3.2,1,4.4c0.6,1,1.6,1.6,2.9,1.6c1.9,0,3.8-1,5.1-2.9l1.9-10.1c-0.6-1.9-1.9-2.9-3.8-2.9
					c-1.9,0-3.5,1-4.8,2.5C114,77,113.3,79.5,113,82.3z"/>
				<path id="Layer_14_" class="st0" d="M132.7,80.4c0.3-2.2,1-4.4,1.9-6.3s2.2-3.5,3.8-4.4c1.6-1,3.2-1.6,5.1-1.6
					c2.5,0,4.4,1,5.7,2.9l1-2.5h4.8l-3.8,22.8c-0.3,3.2-1.6,5.4-3.8,7.3c-2.2,1.9-4.8,2.5-7.9,2.5c-1.6,0-3.2-0.3-4.8-1.3
					c-1.6-1-2.5-1.6-3.5-2.9l2.9-3.2c1.3,1.9,3.2,2.9,5.4,2.9c1.6,0,3.2-0.3,4.4-1.3s1.9-2.2,2.5-4.1l0.3-1.6
					c-1.9,1.9-3.8,2.5-6,2.5c-2.2,0-3.8-1-5.4-2.5c-1.3-1.6-1.9-3.8-2.2-6.7C132.4,82.7,132.4,81.7,132.7,80.4z M137.7,83.3
					c0,1.6,0.3,2.9,1,3.8c0.6,1,1.6,1.3,2.9,1.3c1.9,0,3.5-1,5.1-2.9l1.9-10.5c-0.6-1.6-2.2-2.5-4.1-2.5c-1.6,0-3.2,0.6-4.4,1.9
					c-1.3,1.3-1.9,3.5-2.2,5.7C137.7,80.8,137.7,82.3,137.7,83.3z"/>
				<path id="Layer_15_" class="st0" d="M166.6,92.8c-1.9,0-3.8-0.6-5.4-1.6c-1.6-1-2.5-2.2-3.2-4.1c-0.6-1.6-1-3.5-1-5.7v-1
					c0.3-2.5,1-4.4,2.2-6.3c1.3-1.9,2.5-3.5,4.1-4.4c1.6-1,3.5-1.6,5.4-1.3c2.9,0,5.1,1.3,6.7,3.2c1.6,2.2,1.9,5.1,1.6,8.2l-0.3,2.2
					h-14.6c0,1.9,0.3,3.5,1.3,4.4c1,1.3,2.2,1.6,3.5,1.9c2.2,0,4.1-1,6-2.9l2.5,2.9c-1,1.3-2.2,2.5-3.8,3.2
					C170.1,92.2,168.5,92.8,166.6,92.8z M168.5,72.5c-2.9,0-4.8,1.9-6,5.7h9.8c0-0.6,0-1.6,0-2.2c-0.3-1-0.6-1.9-1.3-2.5
					C170.4,72.8,169.8,72.5,168.5,72.5z"/>
			</g>
		</g>
	</g>
</g>
</svg>
